<svg width="150" height="38" viewBox="0 0 150 38" fill="none" xmlns="http://www.w3.org/2000/svg">
<rect width="38" height="38" rx="8" fill="#3E69F6"/>
<g clip-path="url(#clip0_4316_2279)">
<path d="M28.178 14.7793C27.8911 14.6808 27.6018 14.5893 27.3102 14.5049C27.3586 14.3078 27.4036 14.11 27.445 13.9114C28.1018 10.7213 27.6726 8.15052 26.2042 7.30374C24.7968 6.49215 22.4957 7.33893 20.1712 9.36204C19.9421 9.56142 19.7185 9.76666 19.5003 9.97777C19.3541 9.83703 19.2056 9.69942 19.0547 9.56494C16.6175 7.40343 14.1746 6.49332 12.7085 7.3401C11.3047 8.15404 10.8883 10.5712 11.4771 13.5948C11.5373 13.8942 11.6037 14.1921 11.6765 14.4884C11.3328 14.587 10.9986 14.6913 10.6796 14.8028C7.82374 15.7997 6 17.3595 6 18.978C6 20.6493 7.95861 22.3264 10.9329 23.3409C11.1737 23.4238 11.4169 23.5004 11.6624 23.5708C11.5826 23.889 11.5123 24.2096 11.4513 24.5325C10.886 27.5032 11.327 29.863 12.7296 30.6722C14.1769 31.5072 16.607 30.6487 18.9749 28.5799C19.1626 28.4173 19.3502 28.2445 19.5379 28.0615C19.774 28.2906 20.0164 28.5126 20.265 28.7277C22.5591 30.7003 24.8226 31.4955 26.223 30.6863C27.6714 29.8477 28.1417 27.3132 27.5307 24.2299C27.4837 23.9953 27.4298 23.7553 27.3688 23.5098C27.5393 23.4597 27.7066 23.4077 27.8708 23.3538C30.9635 22.3287 32.9749 20.6716 32.9749 18.978C32.9749 17.3525 31.0925 15.7821 28.178 14.7793ZM20.93 10.2323C22.9215 8.49885 24.7827 7.81626 25.633 8.30416C26.5361 8.82489 26.8856 10.9254 26.318 13.6804C26.2812 13.8602 26.2409 14.0389 26.1972 14.2163C25.0085 13.9469 23.8034 13.7565 22.5896 13.6464C21.894 12.6473 21.1319 11.6964 20.3084 10.7999C20.5101 10.606 20.7166 10.4168 20.9277 10.2323H20.93ZM13.9635 20.3584C14.2082 20.8307 14.4635 21.2959 14.7293 21.7541C15.0006 22.2232 15.2829 22.6857 15.5761 23.1415C14.741 23.0512 13.9111 22.9181 13.0897 22.7428C13.329 21.9722 13.6222 21.1712 13.9646 20.3596L13.9635 20.3584ZM13.9635 17.6492C13.628 16.854 13.3419 16.0718 13.1073 15.3153C13.8755 15.1429 14.6965 15.0021 15.5515 14.8954C15.2653 15.3411 14.9897 15.7946 14.7246 16.2559C14.4588 16.7141 14.2047 17.1785 13.9623 17.6492H13.9635ZM14.5757 19.005C14.9306 18.2661 15.3138 17.5413 15.725 16.8306C16.1332 16.1191 16.5687 15.4251 17.0316 14.7488C17.8338 14.6878 18.6559 14.655 19.4874 14.655C20.3225 14.655 21.1458 14.6878 21.948 14.7488C22.4054 15.4251 22.8386 16.1171 23.2475 16.8247C23.6588 17.5331 24.0466 18.2544 24.4109 18.9886C24.0513 19.7298 23.665 20.4577 23.2522 21.1723C22.8433 21.8823 22.4117 22.5782 21.9574 23.26C21.1575 23.3186 20.3307 23.3468 19.4874 23.3468C18.6477 23.3468 17.8314 23.321 17.0456 23.2694C16.5796 22.5891 16.1402 21.8921 15.7274 21.1782C15.3161 20.4667 14.9322 19.7419 14.5757 19.0038V19.005ZM24.2514 21.7494C24.522 21.2779 24.7823 20.801 25.0325 20.3185C25.3752 21.0936 25.6775 21.8859 25.938 22.6923C25.1074 22.8787 24.2677 23.0216 23.4223 23.1204C23.7069 22.6685 23.9829 22.2111 24.2503 21.7482L24.2514 21.7494ZM25.0208 17.6504C24.7722 17.1781 24.5142 16.7105 24.2468 16.2477C23.9825 15.7926 23.7088 15.343 23.4258 14.8989C24.2855 15.008 25.1099 15.1523 25.8852 15.3294C25.6363 16.1175 25.3478 16.8925 25.0208 17.6515V17.6504ZM19.4992 11.6268C20.0604 12.2384 20.5905 12.878 21.0872 13.5431C20.0254 13.4923 18.9628 13.4923 17.8994 13.5431C18.4237 12.8512 18.9608 12.2085 19.5003 11.6268H19.4992ZM13.2879 8.337C14.191 7.81509 16.1848 8.55983 18.2888 10.4281C18.4237 10.5478 18.5586 10.6721 18.6934 10.8011C17.8652 11.6977 17.0972 12.6482 16.3947 13.6464C15.1845 13.755 13.9826 13.9419 12.7965 14.2058C12.7277 13.9306 12.6659 13.653 12.6112 13.3731V13.3754C12.1034 10.7835 12.44 8.82958 13.2879 8.33934V8.337ZM11.9697 22.4613C11.7468 22.3972 11.5256 22.328 11.3058 22.2537C10.1628 21.8941 9.09575 21.3272 8.15799 20.5812C7.88964 20.3968 7.66198 20.1592 7.4891 19.8832C7.31622 19.6073 7.20179 19.2988 7.15288 18.9768C7.15288 17.9952 8.61656 16.7426 11.0584 15.8923C11.3657 15.7844 11.6753 15.6867 11.9873 15.5991C12.3496 16.7621 12.7884 17.8999 13.3008 19.005C12.7819 20.1261 12.3376 21.2804 11.9708 22.4601L11.9697 22.4613ZM18.2161 27.7155C17.3338 28.5248 16.3101 29.1649 15.1961 29.6038C14.9027 29.7444 14.5835 29.8235 14.2583 29.836C13.9332 29.8485 13.6089 29.7942 13.3055 29.6765C12.4552 29.1839 12.101 27.291 12.583 24.7506C12.6409 24.4496 12.7066 24.1509 12.7801 23.8546C13.9787 24.1118 15.1934 24.2873 16.4158 24.38C17.124 25.3836 17.8974 26.3395 18.731 27.2417C18.5637 27.4035 18.3924 27.5611 18.2173 27.7143L18.2161 27.7155ZM19.532 26.4113C18.9855 25.8226 18.4413 25.1705 17.9088 24.4691C18.4249 24.4895 18.9511 24.4996 19.4874 24.4996C20.0371 24.4996 20.5797 24.4879 21.1153 24.4645C20.6211 25.14 20.0927 25.7898 19.532 26.4113ZM26.5302 28.0146C26.5054 28.3393 26.4142 28.6555 26.2623 28.9435C26.1104 29.2316 25.901 29.4855 25.6471 29.6894C24.7968 30.182 22.9789 29.5416 21.018 27.8551C20.7936 27.6627 20.5676 27.4571 20.3401 27.2382C21.1576 26.3332 21.9131 25.374 22.6013 24.3671C23.8305 24.2635 25.0512 24.0754 26.2546 23.8042C26.3094 24.0262 26.3578 24.2436 26.4001 24.4562C26.6611 25.6248 26.7048 26.8314 26.5291 28.0158L26.5302 28.0146ZM27.5084 22.2596C27.3594 22.3088 27.2081 22.3557 27.0533 22.4003C26.6763 21.2318 26.2202 20.0904 25.6882 18.9839C26.2006 17.8924 26.6394 16.7679 27.0017 15.6179C27.2761 15.6964 27.5447 15.7821 27.8027 15.87C30.3009 16.7285 31.8232 17.9999 31.8232 18.978C31.8232 20.0218 30.1777 21.3752 27.5072 22.2596H27.5084Z" fill="white"/>
<path d="M19.4876 16.569C19.9641 16.569 20.43 16.7103 20.8262 16.9751C21.2224 17.24 21.5312 17.6163 21.7134 18.0566C21.8957 18.497 21.9432 18.9814 21.8501 19.4488C21.757 19.9162 21.5273 20.3454 21.1902 20.6822C20.853 21.019 20.4236 21.2483 19.9561 21.3409C19.4887 21.4336 19.0042 21.3856 18.5641 21.2029C18.1239 21.0202 17.7479 20.7111 17.4835 20.3146C17.219 19.9182 17.0782 19.4522 17.0786 18.9756C17.0795 18.3373 17.3338 17.7255 17.7854 17.2745C18.2371 16.8235 18.8493 16.5702 19.4876 16.5702" fill="white"/>
</g>
<path d="M46.432 15.84V4H50.176L52.624 9.76L55.168 4H58.784V15.84H56.048V8.272L53.888 13.152H51.328L49.168 8.24V15.84H46.432Z" fill="#3E69F6"/>
<path d="M64.3263 15.84V11.84L60.1503 4H63.1742L65.7023 9.008L68.2143 4H71.2542L67.0942 11.84V15.84H64.3263Z" fill="#3E69F6"/>
<path d="M72.6195 15.84V4H75.1635L79.8995 11.056V4H82.6355V15.84H80.0755L75.3715 9.056V15.84H72.6195Z" fill="#3E69F6"/>
<path d="M84.682 15.84V4H93.05V6.4H87.45V8.688H92.33V10.976H87.45V13.44H93.13V15.84H84.682Z" fill="#3E69F6"/>
<path d="M94.8006 15.84L98.4006 9.92L94.8166 4H98.1126L100.321 7.888L102.561 4H105.857L102.209 9.92L105.873 15.84H102.561L100.321 11.952L98.1126 15.84H94.8006Z" fill="#3E69F6"/>
<path d="M110.819 15.84V6.4H107.219V4H117.203V6.4H113.603V15.84H110.819Z" fill="#3E69F6"/>
<path d="M118.823 15.84V4H123.927C124.919 4 125.745 4.192 126.407 4.576C127.068 4.96 127.559 5.456 127.879 6.064C128.209 6.672 128.375 7.30667 128.375 7.968C128.375 8.64 128.209 9.28 127.879 9.888C127.559 10.496 127.068 10.9973 126.407 11.392C125.745 11.776 124.919 11.968 123.927 11.968H121.591V15.84H118.823ZM123.911 6.416H121.591V9.568H123.911C124.476 9.568 124.897 9.40267 125.175 9.072C125.452 8.74133 125.591 8.37867 125.591 7.984C125.591 7.58933 125.452 7.232 125.175 6.912C124.897 6.58133 124.476 6.416 123.911 6.416Z" fill="#3E69F6"/>
<path d="M127.995 15.84L131.979 4H135.691L139.675 15.84H136.78L136.091 13.68H131.579L130.892 15.84H127.995ZM132.348 11.312H135.34L133.836 6.656L132.348 11.312Z" fill="#3E69F6"/>
<path d="M142.936 15.84V11.84L138.76 4H141.784L144.312 9.008L146.824 4H149.864L145.704 11.84V15.84H142.936Z" fill="#3E69F6"/>
<path d="M49.6 34.84V25.4H46V23H55.984V25.4H52.384V34.84H49.6Z" fill="#00AB56"/>
<path d="M57.6039 34.84V23H65.9719V25.4H60.3719V27.688H65.2519V29.976H60.3719V32.44H66.0519V34.84H57.6039Z" fill="#00AB56"/>
<path d="M73.2325 35C72.2512 35 71.3872 34.8293 70.6405 34.488C69.8938 34.136 69.2698 33.672 68.7685 33.096C68.2778 32.5093 67.9045 31.8533 67.6485 31.128C67.4032 30.4027 67.2805 29.6613 67.2805 28.904C67.2805 28.1573 67.4032 27.4213 67.6485 26.696C67.9045 25.9707 68.2778 25.32 68.7685 24.744C69.2698 24.168 69.8938 23.7093 70.6405 23.368C71.3872 23.016 72.2512 22.84 73.2325 22.84C74.0752 22.84 74.7898 22.9467 75.3765 23.16C75.9738 23.3627 76.4698 23.6347 76.8645 23.976C77.2698 24.3067 77.5898 24.6587 77.8245 25.032C78.0698 25.3947 78.2512 25.7413 78.3685 26.072C78.4858 26.4027 78.5605 26.6747 78.5925 26.888C78.6352 27.1013 78.6565 27.208 78.6565 27.208H75.9205C75.9205 27.208 75.8885 27.112 75.8245 26.92C75.7712 26.728 75.6538 26.5093 75.4725 26.264C75.3018 26.008 75.0405 25.784 74.6885 25.592C74.3365 25.4 73.8618 25.304 73.2645 25.304C72.5712 25.304 71.9898 25.48 71.5205 25.832C71.0618 26.184 70.7152 26.6373 70.4805 27.192C70.2565 27.736 70.1445 28.3067 70.1445 28.904C70.1445 29.5013 70.2565 30.0773 70.4805 30.632C70.7152 31.1867 71.0618 31.64 71.5205 31.992C71.9898 32.344 72.5712 32.52 73.2645 32.52C73.8618 32.52 74.3365 32.424 74.6885 32.232C75.0405 32.04 75.3018 31.8213 75.4725 31.576C75.6538 31.3307 75.7712 31.112 75.8245 30.92C75.8885 30.728 75.9205 30.632 75.9205 30.632H78.6565C78.6565 30.632 78.6352 30.7387 78.5925 30.952C78.5605 31.1547 78.4858 31.4267 78.3685 31.768C78.2512 32.0987 78.0698 32.4507 77.8245 32.824C77.5898 33.1867 77.2698 33.5387 76.8645 33.88C76.4698 34.2107 75.9738 34.4827 75.3765 34.696C74.7898 34.8987 74.0752 35 73.2325 35Z" fill="#00AB56"/>
<path d="M80.2445 34.84V23H83.0125V27.592H87.2685V23H90.0365V34.84H87.2685V29.96H83.0125V34.84H80.2445Z" fill="#00AB56"/>
<defs>
<clipPath id="clip0_4316_2279">
<rect width="26.9749" height="24" fill="white" transform="translate(6 6.99994)"/>
</clipPath>
</defs>
</svg>
